<svg width="86" height="43" viewBox="0 0 86 43" fill="none" xmlns="http://www.w3.org/2000/svg">
<g clip-path="url(#clip0_305_3)">
<rect width="86" height="43" fill="#FCFFFE"/>
<rect width="28" height="18" fill="#080865"/>
<rect x="28" width="58" height="3" fill="#CF080C"/>
<rect x="28" y="5" width="58" height="3" fill="#CF080C"/>
<rect x="28" y="10" width="58" height="3" fill="#CF080C"/>
<rect x="28" y="15" width="58" height="3" fill="#CF080C"/>
<rect y="40" width="86" height="3" fill="#CF080C"/>
<rect y="35" width="86" height="3" fill="#CF080C"/>
<rect y="30" width="86" height="3" fill="#CF080C"/>
<rect y="25" width="86" height="3" fill="#CF080C"/>
<rect y="20" width="86" height="3" fill="#CF080C"/>
<path d="M3 1L3.22451 1.69098H3.95106L3.36327 2.11803L3.58779 2.80902L3 2.38197L2.41221 2.80902L2.63673 2.11803L2.04894 1.69098H2.77549L3 1Z" fill="white"/>
<path d="M6 1L6.22451 1.69098H6.95106L6.36327 2.11803L6.58779 2.80902L6 2.38197L5.41221 2.80902L5.63673 2.11803L5.04894 1.69098H5.77549L6 1Z" fill="white"/>
<path d="M9 1L9.22451 1.69098H9.95106L9.36327 2.11803L9.58779 2.80902L9 2.38197L8.41221 2.80902L8.63673 2.11803L8.04894 1.69098H8.77549L9 1Z" fill="white"/>
<path d="M12 1L12.2245 1.69098H12.9511L12.3633 2.11803L12.5878 2.80902L12 2.38197L11.4122 2.80902L11.6367 2.11803L11.0489 1.69098H11.7755L12 1Z" fill="white"/>
<path d="M15 1L15.2245 1.69098H15.9511L15.3633 2.11803L15.5878 2.80902L15 2.38197L14.4122 2.80902L14.6367 2.11803L14.0489 1.69098H14.7755L15 1Z" fill="white"/>
<path d="M18 1L18.2245 1.69098H18.9511L18.3633 2.11803L18.5878 2.80902L18 2.38197L17.4122 2.80902L17.6367 2.11803L17.0489 1.69098H17.7755L18 1Z" fill="white"/>
<path d="M21 1L21.2245 1.69098H21.9511L21.3633 2.11803L21.5878 2.80902L21 2.38197L20.4122 2.80902L20.6367 2.11803L20.0489 1.69098H20.7755L21 1Z" fill="white"/>
<path d="M24 1L24.2245 1.69098H24.9511L24.3633 2.11803L24.5878 2.80902L24 2.38197L23.4122 2.80902L23.6367 2.11803L23.0489 1.69098H23.7755L24 1Z" fill="white"/>
<path d="M3 7L3.22451 7.69098H3.95106L3.36327 8.11803L3.58779 8.80902L3 8.38197L2.41221 8.80902L2.63673 8.11803L2.04894 7.69098H2.77549L3 7Z" fill="white"/>
<path d="M6 7L6.22451 7.69098H6.95106L6.36327 8.11803L6.58779 8.80902L6 8.38197L5.41221 8.80902L5.63673 8.11803L5.04894 7.69098H5.77549L6 7Z" fill="white"/>
<path d="M9 7L9.22451 7.69098H9.95106L9.36327 8.11803L9.58779 8.80902L9 8.38197L8.41221 8.80902L8.63673 8.11803L8.04894 7.69098H8.77549L9 7Z" fill="white"/>
<path d="M12 7L12.2245 7.69098H12.9511L12.3633 8.11803L12.5878 8.80902L12 8.38197L11.4122 8.80902L11.6367 8.11803L11.0489 7.69098H11.7755L12 7Z" fill="white"/>
<path d="M15 7L15.2245 7.69098H15.9511L15.3633 8.11803L15.5878 8.80902L15 8.38197L14.4122 8.80902L14.6367 8.11803L14.0489 7.69098H14.7755L15 7Z" fill="white"/>
<path d="M18 7L18.2245 7.69098H18.9511L18.3633 8.11803L18.5878 8.80902L18 8.38197L17.4122 8.80902L17.6367 8.11803L17.0489 7.69098H17.7755L18 7Z" fill="white"/>
<path d="M21 7L21.2245 7.69098H21.9511L21.3633 8.11803L21.5878 8.80902L21 8.38197L20.4122 8.80902L20.6367 8.11803L20.0489 7.69098H20.7755L21 7Z" fill="white"/>
<path d="M24 7L24.2245 7.69098H24.9511L24.3633 8.11803L24.5878 8.80902L24 8.38197L23.4122 8.80902L23.6367 8.11803L23.0489 7.69098H23.7755L24 7Z" fill="white"/>
<path d="M3 13L3.22451 13.691H3.95106L3.36327 14.118L3.58779 14.809L3 14.382L2.41221 14.809L2.63673 14.118L2.04894 13.691H2.77549L3 13Z" fill="white"/>
<path d="M6 13L6.22451 13.691H6.95106L6.36327 14.118L6.58779 14.809L6 14.382L5.41221 14.809L5.63673 14.118L5.04894 13.691H5.77549L6 13Z" fill="white"/>
<path d="M9 13L9.22451 13.691H9.95106L9.36327 14.118L9.58779 14.809L9 14.382L8.41221 14.809L8.63673 14.118L8.04894 13.691H8.77549L9 13Z" fill="white"/>
<path d="M12 13L12.2245 13.691H12.9511L12.3633 14.118L12.5878 14.809L12 14.382L11.4122 14.809L11.6367 14.118L11.0489 13.691H11.7755L12 13Z" fill="white"/>
<path d="M15 13L15.2245 13.691H15.9511L15.3633 14.118L15.5878 14.809L15 14.382L14.4122 14.809L14.6367 14.118L14.0489 13.691H14.7755L15 13Z" fill="white"/>
<path d="M18 13L18.2245 13.691H18.9511L18.3633 14.118L18.5878 14.809L18 14.382L17.4122 14.809L17.6367 14.118L17.0489 13.691H17.7755L18 13Z" fill="white"/>
<path d="M21 13L21.2245 13.691H21.9511L21.3633 14.118L21.5878 14.809L21 14.382L20.4122 14.809L20.6367 14.118L20.0489 13.691H20.7755L21 13Z" fill="white"/>
<path d="M24 13L24.2245 13.691H24.9511L24.3633 14.118L24.5878 14.809L24 14.382L23.4122 14.809L23.6367 14.118L23.0489 13.691H23.7755L24 13Z" fill="white"/>
<path d="M2 4L2.22451 4.69098H2.95106L2.36327 5.11803L2.58779 5.80902L2 5.38197L1.41221 5.80902L1.63673 5.11803L1.04894 4.69098H1.77549L2 4Z" fill="white"/>
<path d="M5 4L5.22451 4.69098H5.95106L5.36327 5.11803L5.58779 5.80902L5 5.38197L4.41221 5.80902L4.63673 5.11803L4.04894 4.69098H4.77549L5 4Z" fill="white"/>
<path d="M8 4L8.22451 4.69098H8.95106L8.36327 5.11803L8.58779 5.80902L8 5.38197L7.41221 5.80902L7.63673 5.11803L7.04894 4.69098H7.77549L8 4Z" fill="white"/>
<path d="M11 4L11.2245 4.69098H11.9511L11.3633 5.11803L11.5878 5.80902L11 5.38197L10.4122 5.80902L10.6367 5.11803L10.0489 4.69098H10.7755L11 4Z" fill="white"/>
<path d="M14 4L14.2245 4.69098H14.9511L14.3633 5.11803L14.5878 5.80902L14 5.38197L13.4122 5.80902L13.6367 5.11803L13.0489 4.69098H13.7755L14 4Z" fill="white"/>
<path d="M17 4L17.2245 4.69098H17.9511L17.3633 5.11803L17.5878 5.80902L17 5.38197L16.4122 5.80902L16.6367 5.11803L16.0489 4.69098H16.7755L17 4Z" fill="white"/>
<path d="M20 4L20.2245 4.69098H20.9511L20.3633 5.11803L20.5878 5.80902L20 5.38197L19.4122 5.80902L19.6367 5.11803L19.0489 4.69098H19.7755L20 4Z" fill="white"/>
<path d="M23 4L23.2245 4.69098H23.9511L23.3633 5.11803L23.5878 5.80902L23 5.38197L22.4122 5.80902L22.6367 5.11803L22.0489 4.69098H22.7755L23 4Z" fill="white"/>
<path d="M26 4L26.2245 4.69098H26.9511L26.3633 5.11803L26.5878 5.80902L26 5.38197L25.4122 5.80902L25.6367 5.11803L25.0489 4.69098H25.7755L26 4Z" fill="white"/>
<path d="M2 16L2.22451 16.691H2.95106L2.36327 17.118L2.58779 17.809L2 17.382L1.41221 17.809L1.63673 17.118L1.04894 16.691H1.77549L2 16Z" fill="white"/>
<path d="M5 16L5.22451 16.691H5.95106L5.36327 17.118L5.58779 17.809L5 17.382L4.41221 17.809L4.63673 17.118L4.04894 16.691H4.77549L5 16Z" fill="white"/>
<path d="M8 16L8.22451 16.691H8.95106L8.36327 17.118L8.58779 17.809L8 17.382L7.41221 17.809L7.63673 17.118L7.04894 16.691H7.77549L8 16Z" fill="white"/>
<path d="M11 16L11.2245 16.691H11.9511L11.3633 17.118L11.5878 17.809L11 17.382L10.4122 17.809L10.6367 17.118L10.0489 16.691H10.7755L11 16Z" fill="white"/>
<path d="M14 16L14.2245 16.691H14.9511L14.3633 17.118L14.5878 17.809L14 17.382L13.4122 17.809L13.6367 17.118L13.0489 16.691H13.7755L14 16Z" fill="white"/>
<path d="M17 16L17.2245 16.691H17.9511L17.3633 17.118L17.5878 17.809L17 17.382L16.4122 17.809L16.6367 17.118L16.0489 16.691H16.7755L17 16Z" fill="white"/>
<path d="M20 16L20.2245 16.691H20.9511L20.3633 17.118L20.5878 17.809L20 17.382L19.4122 17.809L19.6367 17.118L19.0489 16.691H19.7755L20 16Z" fill="white"/>
<path d="M23 16L23.2245 16.691H23.9511L23.3633 17.118L23.5878 17.809L23 17.382L22.4122 17.809L22.6367 17.118L22.0489 16.691H22.7755L23 16Z" fill="white"/>
<path d="M26 16L26.2245 16.691H26.9511L26.3633 17.118L26.5878 17.809L26 17.382L25.4122 17.809L25.6367 17.118L25.0489 16.691H25.7755L26 16Z" fill="white"/>
<path d="M2 10L2.22451 10.691H2.95106L2.36327 11.118L2.58779 11.809L2 11.382L1.41221 11.809L1.63673 11.118L1.04894 10.691H1.77549L2 10Z" fill="white"/>
<path d="M5 10L5.22451 10.691H5.95106L5.36327 11.118L5.58779 11.809L5 11.382L4.41221 11.809L4.63673 11.118L4.04894 10.691H4.77549L5 10Z" fill="white"/>
<path d="M8 10L8.22451 10.691H8.95106L8.36327 11.118L8.58779 11.809L8 11.382L7.41221 11.809L7.63673 11.118L7.04894 10.691H7.77549L8 10Z" fill="white"/>
<path d="M11 10L11.2245 10.691H11.9511L11.3633 11.118L11.5878 11.809L11 11.382L10.4122 11.809L10.6367 11.118L10.0489 10.691H10.7755L11 10Z" fill="white"/>
<path d="M14 10L14.2245 10.691H14.9511L14.3633 11.118L14.5878 11.809L14 11.382L13.4122 11.809L13.6367 11.118L13.0489 10.691H13.7755L14 10Z" fill="white"/>
<path d="M17 10L17.2245 10.691H17.9511L17.3633 11.118L17.5878 11.809L17 11.382L16.4122 11.809L16.6367 11.118L16.0489 10.691H16.7755L17 10Z" fill="white"/>
<path d="M20 10L20.2245 10.691H20.9511L20.3633 11.118L20.5878 11.809L20 11.382L19.4122 11.809L19.6367 11.118L19.0489 10.691H19.7755L20 10Z" fill="white"/>
<path d="M23 10L23.2245 10.691H23.9511L23.3633 11.118L23.5878 11.809L23 11.382L22.4122 11.809L22.6367 11.118L22.0489 10.691H22.7755L23 10Z" fill="white"/>
<path d="M26 10L26.2245 10.691H26.9511L26.3633 11.118L26.5878 11.809L26 11.382L25.4122 11.809L25.6367 11.118L25.0489 10.691H25.7755L26 10Z" fill="white"/>
</g>
<defs>
<clipPath id="clip0_305_3">
<rect width="86" height="43" fill="white"/>
</clipPath>
</defs>
</svg>
