<svg width="16" height="13" viewBox="0 0 16 13" fill="none" xmlns="http://www.w3.org/2000/svg">
<g clip-path="url(#clip0_305_155)">
<rect width="16" height="13" fill="#FCFFFE"/>
<rect width="7" height="7" fill="#080865"/>
<path d="M1.5 0L1.61226 0.345491H1.97553L1.68164 0.559017L1.79389 0.904508L1.5 0.690983L1.20611 0.904508L1.31836 0.559017L1.02447 0.345491H1.38774L1.5 0Z" fill="white"/>
<path d="M0.5 0L0.612257 0.345491H0.975528L0.681636 0.559017L0.793893 0.904508L0.5 0.690983L0.206107 0.904508L0.318364 0.559017L0.0244717 0.345491H0.387743L0.5 0Z" fill="white"/>
<path d="M2.5 0L2.61226 0.345491H2.97553L2.68164 0.559017L2.79389 0.904508L2.5 0.690983L2.20611 0.904508L2.31836 0.559017L2.02447 0.345491H2.38774L2.5 0Z" fill="white"/>
<path d="M4.5 0L4.61226 0.345491H4.97553L4.68164 0.559017L4.79389 0.904508L4.5 0.690983L4.20611 0.904508L4.31836 0.559017L4.02447 0.345491H4.38774L4.5 0Z" fill="white"/>
<path d="M6.5 0L6.61226 0.345491H6.97553L6.68164 0.559017L6.79389 0.904508L6.5 0.690983L6.20611 0.904508L6.31836 0.559017L6.02447 0.345491H6.38774L6.5 0Z" fill="white"/>
<path d="M0.5 4L0.612257 4.34549H0.975528L0.681636 4.55902L0.793893 4.90451L0.5 4.69098L0.206107 4.90451L0.318364 4.55902L0.0244717 4.34549H0.387743L0.5 4Z" fill="white"/>
<path d="M2.5 4L2.61226 4.34549H2.97553L2.68164 4.55902L2.79389 4.90451L2.5 4.69098L2.20611 4.90451L2.31836 4.55902L2.02447 4.34549H2.38774L2.5 4Z" fill="white"/>
<path d="M4.5 4L4.61226 4.34549H4.97553L4.68164 4.55902L4.79389 4.90451L4.5 4.69098L4.20611 4.90451L4.31836 4.55902L4.02447 4.34549H4.38774L4.5 4Z" fill="white"/>
<path d="M6.5 4L6.61226 4.34549H6.97553L6.68164 4.55902L6.79389 4.90451L6.5 4.69098L6.20611 4.90451L6.31836 4.55902L6.02447 4.34549H6.38774L6.5 4Z" fill="white"/>
<path d="M2.5 1L2.61226 1.34549H2.97553L2.68164 1.55902L2.79389 1.90451L2.5 1.69098L2.20611 1.90451L2.31836 1.55902L2.02447 1.34549H2.38774L2.5 1Z" fill="white"/>
<path d="M4.5 1L4.61226 1.34549H4.97553L4.68164 1.55902L4.79389 1.90451L4.5 1.69098L4.20611 1.90451L4.31836 1.55902L4.02447 1.34549H4.38774L4.5 1Z" fill="white"/>
<path d="M6.5 1L6.61226 1.34549H6.97553L6.68164 1.55902L6.79389 1.90451L6.5 1.69098L6.20611 1.90451L6.31836 1.55902L6.02447 1.34549H6.38774L6.5 1Z" fill="white"/>
<path d="M1.5 1L1.61226 1.34549H1.97553L1.68164 1.55902L1.79389 1.90451L1.5 1.69098L1.20611 1.90451L1.31836 1.55902L1.02447 1.34549H1.38774L1.5 1Z" fill="white"/>
<path d="M3.5 1L3.61226 1.34549H3.97553L3.68164 1.55902L3.79389 1.90451L3.5 1.69098L3.20611 1.90451L3.31836 1.55902L3.02447 1.34549H3.38774L3.5 1Z" fill="white"/>
<path d="M5.5 1L5.61226 1.34549H5.97553L5.68164 1.55902L5.79389 1.90451L5.5 1.69098L5.20611 1.90451L5.31836 1.55902L5.02447 1.34549H5.38774L5.5 1Z" fill="white"/>
<path d="M1.5 2L1.61226 2.34549H1.97553L1.68164 2.55902L1.79389 2.90451L1.5 2.69098L1.20611 2.90451L1.31836 2.55902L1.02447 2.34549H1.38774L1.5 2Z" fill="white"/>
<path d="M0.5 2L0.612257 2.34549H0.975528L0.681636 2.55902L0.793893 2.90451L0.5 2.69098L0.206107 2.90451L0.318364 2.55902L0.0244717 2.34549H0.387743L0.5 2Z" fill="white"/>
<path d="M6.5 2L6.61226 2.34549H6.97553L6.68164 2.55902L6.79389 2.90451L6.5 2.69098L6.20611 2.90451L6.31836 2.55902L6.02447 2.34549H6.38774L6.5 2Z" fill="white"/>
<path d="M2.5 2L2.61226 2.34549H2.97553L2.68164 2.55902L2.79389 2.90451L2.5 2.69098L2.20611 2.90451L2.31836 2.55902L2.02447 2.34549H2.38774L2.5 2Z" fill="white"/>
<path d="M3.5 2L3.61226 2.34549H3.97553L3.68164 2.55902L3.79389 2.90451L3.5 2.69098L3.20611 2.90451L3.31836 2.55902L3.02447 2.34549H3.38774L3.5 2Z" fill="white"/>
<path d="M4.5 2L4.61226 2.34549H4.97553L4.68164 2.55902L4.79389 2.90451L4.5 2.69098L4.20611 2.90451L4.31836 2.55902L4.02447 2.34549H4.38774L4.5 2Z" fill="white"/>
<path d="M5.5 2L5.61226 2.34549H5.97553L5.68164 2.55902L5.79389 2.90451L5.5 2.69098L5.20611 2.90451L5.31836 2.55902L5.02447 2.34549H5.38774L5.5 2Z" fill="white"/>
<path d="M3.5 0L3.61226 0.345491H3.97553L3.68164 0.559017L3.79389 0.904508L3.5 0.690983L3.20611 0.904508L3.31836 0.559017L3.02447 0.345491H3.38774L3.5 0Z" fill="white"/>
<path d="M5.5 0L5.61226 0.345491H5.97553L5.68164 0.559017L5.79389 0.904508L5.5 0.690983L5.20611 0.904508L5.31836 0.559017L5.02447 0.345491H5.38774L5.5 0Z" fill="white"/>
<path d="M1.5 4L1.61226 4.34549H1.97553L1.68164 4.55902L1.79389 4.90451L1.5 4.69098L1.20611 4.90451L1.31836 4.55902L1.02447 4.34549H1.38774L1.5 4Z" fill="white"/>
<path d="M3.5 4L3.61226 4.34549H3.97553L3.68164 4.55902L3.79389 4.90451L3.5 4.69098L3.20611 4.90451L3.31836 4.55902L3.02447 4.34549H3.38774L3.5 4Z" fill="white"/>
<path d="M5.5 4L5.61226 4.34549H5.97553L5.68164 4.55902L5.79389 4.90451L5.5 4.69098L5.20611 4.90451L5.31836 4.55902L5.02447 4.34549H5.38774L5.5 4Z" fill="white"/>
<path d="M0.5 5L0.612257 5.34549H0.975528L0.681636 5.55902L0.793893 5.90451L0.5 5.69098L0.206107 5.90451L0.318364 5.55902L0.0244717 5.34549H0.387743L0.5 5Z" fill="white"/>
<path d="M2.5 5L2.61226 5.34549H2.97553L2.68164 5.55902L2.79389 5.90451L2.5 5.69098L2.20611 5.90451L2.31836 5.55902L2.02447 5.34549H2.38774L2.5 5Z" fill="white"/>
<path d="M4.5 5L4.61226 5.34549H4.97553L4.68164 5.55902L4.79389 5.90451L4.5 5.69098L4.20611 5.90451L4.31836 5.55902L4.02447 5.34549H4.38774L4.5 5Z" fill="white"/>
<path d="M6.5 5L6.61226 5.34549H6.97553L6.68164 5.55902L6.79389 5.90451L6.5 5.69098L6.20611 5.90451L6.31836 5.55902L6.02447 5.34549H6.38774L6.5 5Z" fill="white"/>
<path d="M1.5 5L1.61226 5.34549H1.97553L1.68164 5.55902L1.79389 5.90451L1.5 5.69098L1.20611 5.90451L1.31836 5.55902L1.02447 5.34549H1.38774L1.5 5Z" fill="white"/>
<path d="M3.5 5L3.61226 5.34549H3.97553L3.68164 5.55902L3.79389 5.90451L3.5 5.69098L3.20611 5.90451L3.31836 5.55902L3.02447 5.34549H3.38774L3.5 5Z" fill="white"/>
<path d="M5.5 5L5.61226 5.34549H5.97553L5.68164 5.55902L5.79389 5.90451L5.5 5.69098L5.20611 5.90451L5.31836 5.55902L5.02447 5.34549H5.38774L5.5 5Z" fill="white"/>
<path d="M0.5 6L0.612257 6.34549H0.975528L0.681636 6.55902L0.793893 6.90451L0.5 6.69098L0.206107 6.90451L0.318364 6.55902L0.0244717 6.34549H0.387743L0.5 6Z" fill="white"/>
<path d="M2.5 6L2.61226 6.34549H2.97553L2.68164 6.55902L2.79389 6.90451L2.5 6.69098L2.20611 6.90451L2.31836 6.55902L2.02447 6.34549H2.38774L2.5 6Z" fill="white"/>
<path d="M4.5 6L4.61226 6.34549H4.97553L4.68164 6.55902L4.79389 6.90451L4.5 6.69098L4.20611 6.90451L4.31836 6.55902L4.02447 6.34549H4.38774L4.5 6Z" fill="white"/>
<path d="M6.5 6L6.61226 6.34549H6.97553L6.68164 6.55902L6.79389 6.90451L6.5 6.69098L6.20611 6.90451L6.31836 6.55902L6.02447 6.34549H6.38774L6.5 6Z" fill="white"/>
<path d="M1.5 6L1.61226 6.34549H1.97553L1.68164 6.55902L1.79389 6.90451L1.5 6.69098L1.20611 6.90451L1.31836 6.55902L1.02447 6.34549H1.38774L1.5 6Z" fill="white"/>
<path d="M3.5 6L3.61226 6.34549H3.97553L3.68164 6.55902L3.79389 6.90451L3.5 6.69098L3.20611 6.90451L3.31836 6.55902L3.02447 6.34549H3.38774L3.5 6Z" fill="white"/>
<path d="M5.5 6L5.61226 6.34549H5.97553L5.68164 6.55902L5.79389 6.90451L5.5 6.69098L5.20611 6.90451L5.31836 6.55902L5.02447 6.34549H5.38774L5.5 6Z" fill="white"/>
<path d="M0.5 1L0.612257 1.34549H0.975528L0.681636 1.55902L0.793893 1.90451L0.5 1.69098L0.206107 1.90451L0.318364 1.55902L0.0244717 1.34549H0.387743L0.5 1Z" fill="white"/>
<path d="M2.5 3L2.61226 3.34549H2.97553L2.68164 3.55902L2.79389 3.90451L2.5 3.69098L2.20611 3.90451L2.31836 3.55902L2.02447 3.34549H2.38774L2.5 3Z" fill="white"/>
<path d="M4.5 3L4.61226 3.34549H4.97553L4.68164 3.55902L4.79389 3.90451L4.5 3.69098L4.20611 3.90451L4.31836 3.55902L4.02447 3.34549H4.38774L4.5 3Z" fill="white"/>
<path d="M6.5 3L6.61226 3.34549H6.97553L6.68164 3.55902L6.79389 3.90451L6.5 3.69098L6.20611 3.90451L6.31836 3.55902L6.02447 3.34549H6.38774L6.5 3Z" fill="white"/>
<path d="M1.5 3L1.61226 3.34549H1.97553L1.68164 3.55902L1.79389 3.90451L1.5 3.69098L1.20611 3.90451L1.31836 3.55902L1.02447 3.34549H1.38774L1.5 3Z" fill="white"/>
<path d="M3.5 3L3.61226 3.34549H3.97553L3.68164 3.55902L3.79389 3.90451L3.5 3.69098L3.20611 3.90451L3.31836 3.55902L3.02447 3.34549H3.38774L3.5 3Z" fill="white"/>
<path d="M5.5 3L5.61226 3.34549H5.97553L5.68164 3.55902L5.79389 3.90451L5.5 3.69098L5.20611 3.90451L5.31836 3.55902L5.02447 3.34549H5.38774L5.5 3Z" fill="white"/>
<path d="M0.5 3L0.612257 3.34549H0.975528L0.681636 3.55902L0.793893 3.90451L0.5 3.69098L0.206107 3.90451L0.318364 3.55902L0.0244717 3.34549H0.387743L0.5 3Z" fill="white"/>
<rect x="7" width="9" height="1" fill="#CF080C"/>
<path d="M7 2H16V3H7V2Z" fill="#CF080C"/>
<path d="M7 4H16V5H7V4Z" fill="#CF080C"/>
<path d="M7 6H16V7H7V6Z" fill="#CF080C"/>
<path d="M0 8H16V9H0V8Z" fill="#CF080C"/>
<path d="M0 10H16V11H0V10Z" fill="#CF080C"/>
<path d="M0 12H16V13H0V12Z" fill="#CF080C"/>
</g>
<defs>
<clipPath id="clip0_305_155">
<rect width="16" height="13" fill="white"/>
</clipPath>
</defs>
</svg>
